<svg width="99" height="32" viewBox="0 0 99 32" fill="none" xmlns="http://www.w3.org/2000/svg">
<g clip-path="url(#clip0_8612_34331)">
<path d="M6.33924 31.9983C6.08416 31.9983 5.83524 31.9951 5.58215 31.9894C5.05787 31.9825 4.53482 31.9369 4.01728 31.8529C3.5347 31.7699 3.06721 31.6154 2.63024 31.3946C2.19726 31.1756 1.80236 30.8884 1.46065 30.5441C1.11399 30.2039 0.825382 29.8093 0.606261 29.3759C0.384725 28.9397 0.231409 28.4722 0.151653 27.9895C0.0655241 27.471 0.0189247 26.9466 0.0122568 26.421C0.00694891 26.2446 0 25.6571 0 25.6571V6.33219C0 6.33219 0.00740101 5.75378 0.0122987 5.58385C0.0186832 5.05907 0.0650116 4.53552 0.150883 4.01776C0.230786 3.53383 0.38422 3.06494 0.605875 2.62732C0.824192 2.19424 1.1112 1.79932 1.45577 1.45785C1.79995 1.11314 2.19612 0.824515 2.62983 0.602497C3.0658 0.382385 3.53241 0.228993 4.01401 0.14746C4.53325 0.0626047 5.05812 0.0167279 5.58421 0.0102144L6.33965 0H92.379L93.1434 0.0106243C93.6647 0.0168142 94.1849 0.0622817 94.6993 0.14664C95.1858 0.229196 95.6573 0.383658 96.0982 0.604948C96.9671 1.05238 97.6741 1.76025 98.1201 2.62936C98.3382 3.06396 98.4893 3.52902 98.5682 4.00878C98.6551 4.53079 98.7037 5.05844 98.7137 5.58754C98.7161 5.82445 98.7161 6.07893 98.7161 6.33219C98.7227 6.6459 98.7227 6.94449 98.7227 7.24553V24.7536C98.7227 25.0575 98.7227 25.3541 98.7161 25.653C98.7161 25.9251 98.7161 26.1743 98.7128 26.4308C98.7031 26.9504 98.6553 27.4687 98.5698 27.9813C98.4916 28.4674 98.3392 28.9386 98.1177 29.3784C97.897 29.8071 97.61 30.1983 97.2674 30.5376C96.9254 30.8838 96.5298 31.1726 96.0958 31.393C95.6561 31.6155 95.1853 31.7706 94.6993 31.8529C94.1818 31.9374 93.6587 31.983 93.1344 31.9894C92.8892 31.9951 92.6324 31.9983 92.3831 31.9983L91.4755 32L6.33924 31.9983Z" fill="black"/>
<path d="M20.006 16.2517C20.015 15.5535 20.2006 14.8689 20.5455 14.2615C20.8905 13.6542 21.3836 13.144 21.9789 12.7783C21.6007 12.2386 21.1018 11.7944 20.5217 11.4811C19.9417 11.1677 19.2965 10.9939 18.6374 10.9733C17.2316 10.8258 15.8686 11.8139 15.1522 11.8139C14.4219 11.8139 13.3189 10.9879 12.1311 11.0123C11.3628 11.0371 10.6141 11.2604 9.95779 11.6603C9.30152 12.0602 8.76011 12.6232 8.38632 13.2943C6.76715 16.0955 7.97491 20.2122 9.52594 22.4765C10.302 23.5852 11.2089 24.8237 12.3956 24.7797C13.5569 24.7316 13.9906 24.0398 15.3923 24.0398C16.7811 24.0398 17.188 24.7797 18.3988 24.7518C19.6449 24.7316 20.43 23.6382 21.1787 22.5189C21.7363 21.7289 22.1654 20.8558 22.45 19.9319C21.726 19.6259 21.1082 19.1138 20.6736 18.4594C20.239 17.8049 20.0068 17.0371 20.006 16.2517Z" fill="white"/>
<path d="M17.719 9.48407C18.3985 8.66909 18.7332 7.62157 18.6521 6.56396C17.6141 6.6729 16.6553 7.16861 15.9667 7.95232C15.63 8.33519 15.3722 8.7806 15.2079 9.2631C15.0436 9.7456 14.976 10.2557 15.0092 10.7643C15.5284 10.7697 16.042 10.6572 16.5114 10.4355C16.9808 10.2137 17.3937 9.8884 17.719 9.48407Z" fill="white"/>
<path d="M34.6854 21.9724H30.7225L29.7708 24.7802H28.0923L31.8459 14.3918H33.5898L37.3433 24.7802H35.6362L34.6854 21.9724ZM31.1329 20.6767H34.2741L32.7256 16.1197H32.6823L31.1329 20.6767Z" fill="white"/>
<path d="M45.4496 20.9938C45.4496 23.3474 44.1889 24.8596 42.2864 24.8596C41.8044 24.8848 41.3251 24.7738 40.9033 24.5395C40.4815 24.3051 40.1343 23.9568 39.9015 23.5345H39.8654V27.2859H38.3096V17.2064H39.8156V18.4661H39.8442C40.0878 18.0458 40.4409 17.6993 40.8659 17.4635C41.2909 17.2277 41.7719 17.1115 42.2577 17.1271C44.1815 17.1271 45.4496 18.6467 45.4496 20.9938ZM43.8504 20.9938C43.8504 19.4604 43.0573 18.4522 41.8473 18.4522C40.6585 18.4522 39.8589 19.4816 39.8589 20.9938C39.8589 22.5198 40.6585 23.5418 41.8473 23.5418C43.0574 23.5418 43.8504 22.5411 43.8504 20.9938Z" fill="white"/>
<path d="M53.7924 20.9938C53.7924 23.3474 52.5317 24.8596 50.6291 24.8596C50.1472 24.8848 49.6679 24.7738 49.2461 24.5395C48.8243 24.3051 48.4771 23.9568 48.2442 23.5345H48.2082V27.2859H46.6523V17.2064H48.1583V18.4661H48.187C48.4306 18.0458 48.7836 17.6993 49.2086 17.4635C49.6336 17.2277 50.1146 17.1115 50.6005 17.1271C52.5243 17.1271 53.7924 18.6467 53.7924 20.9938ZM52.1932 20.9938C52.1932 19.4603 51.4001 18.4522 50.1901 18.4522C49.0013 18.4522 48.2017 19.4816 48.2017 20.9938C48.2017 22.5198 49.0013 23.5418 50.1901 23.5418C51.4001 23.5418 52.1932 22.5411 52.1932 20.9938H52.1932Z" fill="white"/>
<path d="M59.3061 21.8859C59.4214 22.9161 60.4229 23.5925 61.7916 23.5925C63.103 23.5925 64.0465 22.916 64.0465 21.9871C64.0465 21.1808 63.4774 20.698 62.13 20.3671L60.7827 20.0428C58.8736 19.582 57.9873 18.6899 57.9873 17.2423C57.9873 15.4499 59.5505 14.2188 61.7703 14.2188C63.9672 14.2188 65.4732 15.4499 65.5239 17.2423H63.9533C63.8592 16.2056 63.0016 15.5798 61.7482 15.5798C60.4948 15.5798 59.6372 16.2129 59.6372 17.1345C59.6372 17.8689 60.185 18.3011 61.525 18.6319L62.6704 18.9129C64.8035 19.417 65.6898 20.2732 65.6898 21.7927C65.6898 23.7362 64.1405 24.9535 61.6763 24.9535C59.3706 24.9535 57.8139 23.7648 57.7134 21.8858L59.3061 21.8859Z" fill="white"/>
<path d="M69.0477 15.4138V17.2062H70.4891V18.4374H69.0477V22.6128C69.0477 23.2614 69.3363 23.5637 69.9699 23.5637C70.141 23.5607 70.3119 23.5487 70.4817 23.5277V24.7515C70.1969 24.8047 69.9073 24.8288 69.6175 24.8234C68.0829 24.8234 67.4844 24.2475 67.4844 22.7786V18.4374H66.3823V17.2062H67.4844V15.4138H69.0477Z" fill="white"/>
<path d="M71.3242 20.9936C71.3242 18.6105 72.7288 17.113 74.9192 17.113C77.1169 17.113 78.5149 18.6105 78.5149 20.9936C78.5149 23.3831 77.1242 24.8741 74.9192 24.8741C72.7149 24.8741 71.3242 23.3831 71.3242 20.9936ZM76.9296 20.9936C76.9296 19.3588 76.1799 18.394 74.9192 18.394C73.6584 18.394 72.9095 19.3662 72.9095 20.9936C72.9095 22.6348 73.6584 23.5923 74.9192 23.5923C76.1799 23.5923 76.9296 22.6348 76.9296 20.9936H76.9296Z" fill="white"/>
<path d="M79.7976 17.2063H81.2815V18.4954H81.3175C81.4179 18.0928 81.654 17.737 81.986 17.4878C82.3181 17.2386 82.7258 17.1112 83.1408 17.127C83.3201 17.1264 83.4989 17.1459 83.6738 17.1851V18.6392C83.4475 18.5701 83.2114 18.5384 82.9748 18.5453C82.7487 18.5361 82.5234 18.5759 82.3142 18.662C82.1051 18.7481 81.917 18.8784 81.763 19.0439C81.609 19.2095 81.4926 19.4063 81.4219 19.6211C81.3512 19.8358 81.3279 20.0632 81.3535 20.2878V24.7802H79.7976L79.7976 17.2063Z" fill="white"/>
<path d="M90.8475 22.5556C90.6382 23.9305 89.2982 24.8741 87.5837 24.8741C85.3787 24.8741 84.01 23.3978 84.01 21.0295C84.01 18.6538 85.386 17.113 87.5183 17.113C89.6154 17.113 90.9342 18.5525 90.9342 20.849V21.3816H85.5806V21.4756C85.5559 21.7543 85.5908 22.0351 85.6831 22.2993C85.7753 22.5635 85.9228 22.8051 86.1156 23.008C86.3085 23.2109 86.5423 23.3705 86.8016 23.4762C87.061 23.5818 87.3398 23.6312 87.6197 23.6209C87.9874 23.6553 88.3563 23.5702 88.6717 23.3783C88.9871 23.1863 89.2321 22.8978 89.3702 22.5556L90.8475 22.5556ZM85.588 20.2951H89.3775C89.3915 20.0444 89.3534 19.7936 89.2658 19.5584C89.1782 19.3231 89.0428 19.1085 88.8682 18.928C88.6937 18.7475 88.4836 18.605 88.2513 18.5095C88.019 18.4139 87.7695 18.3674 87.5183 18.3728C87.2649 18.3713 87.0138 18.4199 86.7793 18.5159C86.5449 18.6119 86.3318 18.7533 86.1523 18.932C85.9728 19.1108 85.8306 19.3232 85.7337 19.5572C85.6368 19.7911 85.5873 20.0419 85.588 20.2951V20.2951Z" fill="white"/>
<path d="M30.0272 8.68156H30.6952C30.8102 8.69587 30.9269 8.68622 31.0379 8.65322C31.149 8.62023 31.252 8.5646 31.3405 8.48984C31.429 8.41508 31.501 8.32282 31.5521 8.21887C31.6031 8.11492 31.632 8.00153 31.637 7.88585C31.637 7.4255 31.2904 7.12813 30.7025 7.12813C30.5847 7.11168 30.4648 7.11899 30.3499 7.14961C30.2349 7.18024 30.1273 7.23356 30.0333 7.30644C29.9394 7.37932 29.861 7.47027 29.8028 7.57392C29.7446 7.67758 29.7077 7.79184 29.6944 7.90995H28.961C28.9737 7.69554 29.0303 7.48603 29.1275 7.29445C29.2247 7.10286 29.3603 6.93332 29.5258 6.79637C29.6914 6.65943 29.8835 6.558 30.09 6.49842C30.2965 6.43884 30.5131 6.42238 30.7262 6.45006C31.7098 6.45006 32.4023 7.00027 32.4023 7.79231C32.4046 8.05765 32.3158 8.31575 32.1506 8.52353C31.9855 8.73131 31.754 8.87619 31.4948 8.934V8.99282C31.802 9.00644 32.0914 9.14105 32.2996 9.36724C32.5078 9.59343 32.6179 9.89278 32.6059 10.1999C32.5832 10.4206 32.5165 10.6346 32.41 10.8293C32.3034 11.024 32.159 11.1955 31.9852 11.3337C31.8114 11.4719 31.6118 11.5741 31.398 11.6342C31.1842 11.6944 30.9606 11.7112 30.7401 11.6839C30.5193 11.7139 30.2946 11.6993 30.0795 11.6408C29.8645 11.5822 29.6634 11.481 29.4883 11.3432C29.3132 11.2054 29.1676 11.0337 29.0603 10.8385C28.953 10.6432 28.8862 10.4284 28.8638 10.2068H29.6086C29.6536 10.6843 30.0926 10.9923 30.7401 10.9923C31.3877 10.9923 31.8104 10.6464 31.8104 10.1586C31.8104 9.66398 31.4122 9.35926 30.7164 9.35926H30.0272V8.68156Z" fill="white"/>
<path d="M33.4519 10.498C33.4519 9.81992 33.958 9.42901 34.8541 9.37346L35.8752 9.31464V8.9895C35.8752 8.59164 35.6128 8.36698 35.1034 8.36698C34.6881 8.36698 34.4011 8.51934 34.3177 8.78567H33.5974C33.6735 8.13864 34.2834 7.72363 35.1386 7.72363C36.0837 7.72363 36.6168 8.19378 36.6168 8.9895V11.5633H35.8998V11.0339H35.8409C35.7214 11.2238 35.5536 11.3786 35.3547 11.4825C35.1558 11.5864 34.9328 11.6357 34.7085 11.6254C34.5503 11.6418 34.3903 11.6249 34.239 11.5758C34.0877 11.5267 33.9483 11.4465 33.8299 11.3403C33.7115 11.234 33.6167 11.1042 33.5516 10.9591C33.4865 10.8141 33.4525 10.657 33.4519 10.498ZM35.8752 10.1761V9.86118L34.9546 9.92C34.4354 9.95471 34.2 10.1312 34.2 10.4633C34.2 10.8023 34.4943 10.9996 34.899 10.9996C35.0176 11.0116 35.1374 10.9996 35.2513 10.9644C35.3652 10.9292 35.4708 10.8715 35.5619 10.7946C35.6529 10.7178 35.7276 10.6235 35.7815 10.5172C35.8353 10.4109 35.8672 10.2949 35.8752 10.1761Z" fill="white"/>
<path d="M38.5914 8.42291V11.5641H37.8474V7.79712H40.3297V8.42286L38.5914 8.42291Z" fill="white"/>
<path d="M44.8387 9.6786C44.8387 10.8754 44.2328 11.6258 43.2812 11.6258C43.0475 11.6418 42.8142 11.5907 42.6087 11.4786C42.4032 11.3665 42.2339 11.198 42.121 10.9931H42.0621V12.8161H41.3181V7.79676H42.0343V8.4193H42.0899C42.2049 8.20718 42.3763 8.03095 42.5852 7.91007C42.7942 7.78918 43.0325 7.72835 43.2738 7.73428C44.2328 7.73426 44.8387 8.48135 44.8387 9.6786ZM44.0734 9.6786C44.0734 8.88289 43.6965 8.40212 43.0661 8.40212C42.4399 8.40212 42.0482 8.8931 42.0482 9.68187C42.0482 10.467 42.4399 10.9584 43.0629 10.9584C43.6965 10.9584 44.0734 10.4776 44.0734 9.6786Z" fill="white"/>
<path d="M45.8294 12.9133V12.2732C45.9099 12.2834 45.991 12.2881 46.0722 12.2871C46.2307 12.2988 46.3879 12.2516 46.5138 12.1546C46.6396 12.0576 46.7252 11.9176 46.754 11.7614L46.8096 11.578L45.4451 7.79712H46.2553L47.2005 10.7892H47.2593L48.2012 7.79712H48.9902L47.5848 11.7197C47.2626 12.6363 46.9061 12.9304 46.1376 12.9304C46.0755 12.9304 45.8989 12.9235 45.8294 12.9133Z" fill="white"/>
<path d="M49.5701 10.494H50.3108C50.3836 10.8261 50.6951 10.9992 51.1309 10.9992C51.6263 10.9992 51.9305 10.7811 51.9305 10.4421C51.9305 10.079 51.6574 9.90577 51.1309 9.90577H50.5667V9.32819H51.121C51.5707 9.32819 51.7996 9.15541 51.7996 8.84048C51.7996 8.56394 51.5781 8.35276 51.121 8.35276C50.7049 8.35276 50.4007 8.52923 50.3525 8.8266H49.6355C49.6891 8.4849 49.8748 8.17787 50.1526 7.97154C50.4304 7.76522 50.7781 7.67608 51.121 7.7233C52.0171 7.7233 52.5298 8.12811 52.5298 8.76451C52.5339 8.94173 52.4771 9.11501 52.3688 9.25539C52.2604 9.39576 52.1071 9.49472 51.9345 9.53571V9.59453C52.14 9.62102 52.3286 9.72196 52.4646 9.87819C52.6005 10.0344 52.6743 10.2351 52.672 10.4421C52.672 11.1582 52.0621 11.632 51.1309 11.632C50.3075 11.632 49.6388 11.255 49.5701 10.494Z" fill="white"/>
<path d="M53.7434 11.5641V7.79712H54.4809V10.3881H54.5397L56.2771 7.79713H57.0146V11.5641H56.2771V8.95925H56.2215L54.4809 11.5641L53.7434 11.5641Z" fill="white"/>
<path d="M61.0772 8.42286H59.89V11.564H59.1452V8.42286H57.958V7.79712H61.0772V8.42286Z" fill="white"/>
<path d="M65.0848 10.5463C64.9834 10.8905 64.7642 11.1883 64.4655 11.3875C64.1667 11.5866 63.8075 11.6746 63.4504 11.6361C63.202 11.6426 62.9552 11.5951 62.7271 11.4968C62.4989 11.3985 62.2949 11.2517 62.1292 11.0667C61.9636 10.8817 61.8401 10.6629 61.7676 10.4255C61.695 10.188 61.675 9.93766 61.7089 9.69173C61.6759 9.44504 61.6962 9.19413 61.7686 8.95599C61.841 8.71784 61.9638 8.49802 62.1286 8.31141C62.2935 8.1248 62.4965 7.97574 62.724 7.87435C62.9514 7.77295 63.1981 7.72157 63.4471 7.7237C64.4961 7.7237 65.1297 8.43979 65.1297 9.62268V9.8821H62.4677V9.92376C62.4559 10.062 62.4732 10.2012 62.5184 10.3324C62.5637 10.4636 62.6359 10.5839 62.7305 10.6855C62.825 10.7872 62.9398 10.8679 63.0675 10.9226C63.1951 10.9772 63.3328 11.0046 63.4717 11.0029C63.6495 11.0242 63.8297 10.9921 63.9892 10.9108C64.1488 10.8295 64.2806 10.7026 64.3678 10.5462L65.0848 10.5463ZM62.4677 9.33228H64.371C64.3804 9.20592 64.3633 9.07899 64.3207 8.95964C64.2781 8.84029 64.2109 8.73117 64.1236 8.63927C64.0363 8.54738 63.9307 8.47474 63.8137 8.42603C63.6966 8.37732 63.5706 8.35362 63.4439 8.35643C63.3151 8.35468 63.1874 8.37873 63.0681 8.42716C62.9489 8.47559 62.8405 8.54741 62.7495 8.63838C62.6585 8.72935 62.5867 8.83763 62.5383 8.95681C62.4899 9.07599 62.4659 9.20367 62.4677 9.33228H62.4677Z" fill="white"/>
<path d="M68.2393 7.79712H69.939C70.6765 7.79712 71.109 8.17047 71.109 8.75498C71.1102 8.94045 71.0475 9.12069 70.9316 9.26553C70.8156 9.41038 70.6534 9.51104 70.4721 9.55069V9.6095C70.6923 9.6234 70.8987 9.72127 71.0487 9.88288C71.1987 10.0445 71.2809 10.2575 71.2783 10.4779C71.2783 11.1352 70.7836 11.5641 69.9562 11.5641H68.2393V7.79712ZM68.9767 8.36776V9.34319H69.7142C70.1639 9.34319 70.3789 9.1704 70.3789 8.85179C70.3789 8.5581 70.1917 8.36775 69.7968 8.36775L68.9767 8.36776ZM68.9767 9.88974V10.9934H69.8589C70.2988 10.9934 70.5343 10.7994 70.5343 10.4432C70.5343 10.0662 70.2677 9.88975 69.7657 9.88975L68.9767 9.88974Z" fill="white"/>
</g>
<defs>
<clipPath id="clip0_8612_34331">
<rect width="99" height="32" fill="white"/>
</clipPath>
</defs>
</svg>
