<svg width="108" height="32" viewBox="0 0 108 32" fill="none" xmlns="http://www.w3.org/2000/svg">
<g clip-path="url(#clip0_8612_34362)">
<path d="M104 0H4C1.79086 0 0 1.79086 0 4V28C0 30.2091 1.79086 32 4 32H104C106.209 32 108 30.2091 108 28V4C108 1.79086 106.209 0 104 0Z" fill="black"/>
<path d="M54.5119 17.4C53.8378 17.4016 53.1794 17.603 52.6199 17.9788C52.0603 18.3546 51.6247 18.8879 51.3683 19.5112C51.1118 20.1345 51.0459 20.8199 51.1789 21.4807C51.312 22.1415 51.638 22.748 52.1157 23.2234C52.5935 23.6989 53.2015 24.0221 53.8629 24.152C54.5243 24.282 55.2093 24.2129 55.8315 23.9535C56.4536 23.6941 56.9848 23.256 57.358 22.6947C57.7311 22.1334 57.9295 21.474 57.9279 20.8C57.9344 20.3503 57.8504 19.904 57.6808 19.4875C57.5113 19.071 57.2596 18.6928 56.9409 18.3756C56.6222 18.0584 56.2429 17.8085 55.8256 17.6409C55.4083 17.4733 54.9615 17.3914 54.5119 17.4ZM54.5119 22.864C54.0987 22.8929 53.6865 22.7968 53.3287 22.5883C52.9708 22.3798 52.684 22.0684 52.5055 21.6947C52.327 21.321 52.265 20.9023 52.3276 20.4929C52.3902 20.0835 52.5746 19.7024 52.8567 19.3992C53.1387 19.096 53.5055 18.8846 53.9093 18.7926C54.3131 18.7006 54.7352 18.7322 55.1208 18.8833C55.5064 19.0343 55.8377 19.2979 56.0715 19.6398C56.3053 19.9816 56.4309 20.3858 56.4319 20.8C56.4448 21.0624 56.405 21.3247 56.3149 21.5715C56.2248 21.8183 56.0861 22.0446 55.9072 22.2369C55.7283 22.4293 55.5126 22.5839 55.273 22.6916C55.0333 22.7993 54.7745 22.8579 54.5119 22.864ZM47.0559 17.4C46.3818 17.4016 45.7234 17.603 45.1639 17.9788C44.6043 18.3546 44.1687 18.8879 43.9123 19.5112C43.6558 20.1345 43.5899 20.8199 43.7229 21.4807C43.856 22.1415 44.182 22.748 44.6597 23.2234C45.1375 23.6989 45.7455 24.0221 46.4069 24.152C47.0683 24.282 47.7533 24.2129 48.3755 23.9535C48.9976 23.6941 49.5288 23.256 49.902 22.6947C50.2751 22.1334 50.4735 21.474 50.4719 20.8C50.4784 20.3503 50.3944 19.904 50.2248 19.4875C50.0553 19.071 49.8036 18.6928 49.4849 18.3756C49.1662 18.0584 48.7869 17.8085 48.3696 17.6409C47.9523 17.4733 47.5055 17.3914 47.0559 17.4ZM47.0559 22.864C46.6427 22.8929 46.2305 22.7968 45.8727 22.5883C45.5148 22.3798 45.228 22.0684 45.0495 21.6947C44.871 21.321 44.809 20.9023 44.8716 20.4929C44.9342 20.0835 45.1186 19.7024 45.4007 19.3992C45.6827 19.096 46.0495 18.8846 46.4533 18.7926C46.8571 18.7006 47.2792 18.7322 47.6648 18.8833C48.0504 19.0343 48.3817 19.2979 48.6155 19.6398C48.8493 19.9816 48.9749 20.3858 48.9759 20.8C48.9888 21.0624 48.949 21.3247 48.8589 21.5715C48.7688 21.8183 48.6301 22.0446 48.4512 22.2369C48.2723 22.4293 48.0566 22.5839 47.817 22.6916C47.5773 22.7993 47.3185 22.8579 47.0559 22.864ZM38.1919 18.448V19.888H41.6479C41.5937 20.5662 41.3118 21.2062 40.8479 21.704C40.5012 22.0572 40.0842 22.3337 39.624 22.5156C39.1637 22.6975 38.6704 22.7808 38.1759 22.76C37.1575 22.76 36.1807 22.3554 35.4606 21.6353C34.7405 20.9151 34.3359 19.9384 34.3359 18.92C34.3359 17.9016 34.7405 16.9248 35.4606 16.2047C36.1807 15.4846 37.1575 15.08 38.1759 15.08C39.1522 15.0655 40.095 15.4362 40.7999 16.112L41.8159 15.096C41.3391 14.6244 40.7729 14.2527 40.1507 14.0027C39.5284 13.7527 38.8624 13.6294 38.1919 13.64C37.4807 13.6123 36.7712 13.7285 36.106 13.9816C35.4408 14.2346 34.8335 14.6194 34.3205 15.1128C33.8075 15.6062 33.3994 16.1981 33.1207 16.8529C32.8419 17.5078 32.6982 18.2122 32.6982 18.924C32.6982 19.6357 32.8419 20.3401 33.1207 20.995C33.3994 21.6499 33.8075 22.2418 34.3205 22.7352C34.8335 23.2286 35.4408 23.6133 36.106 23.8664C36.7712 24.1195 37.4807 24.2357 38.1919 24.208C38.8762 24.2353 39.5586 24.1176 40.1942 23.8625C40.8298 23.6074 41.4043 23.2208 41.8799 22.728C42.72 21.8051 43.1676 20.5913 43.1279 19.344C43.1307 19.0438 43.1067 18.7439 43.0559 18.448H38.1919ZM74.4399 19.568C74.2313 18.9542 73.8411 18.4182 73.3211 18.0311C72.8011 17.6439 72.1757 17.4238 71.5279 17.4C71.0903 17.3991 70.6572 17.488 70.2553 17.6612C69.8534 17.8344 69.4913 18.0882 69.1914 18.4068C68.8915 18.7255 68.6601 19.1023 68.5116 19.5139C68.363 19.9255 68.3005 20.3632 68.3279 20.8C68.321 21.5303 68.5506 22.2432 68.9824 22.8322C69.4141 23.4212 70.0248 23.8548 70.7233 24.0681C71.4218 24.2814 72.1705 24.2631 72.8577 24.0158C73.5448 23.7684 74.1335 23.3055 74.5359 22.696L73.3759 21.896C73.203 22.1842 72.9577 22.4222 72.6644 22.5864C72.3711 22.7506 72.04 22.8353 71.7039 22.832C71.3571 22.8463 71.0142 22.7554 70.7201 22.5712C70.4259 22.387 70.1944 22.1182 70.0559 21.8L74.6079 19.92L74.4399 19.568ZM69.7999 20.704C69.7837 20.4555 69.8172 20.2063 69.8985 19.9709C69.9798 19.7355 70.1073 19.5187 70.2734 19.3332C70.4395 19.1477 70.641 18.9972 70.866 18.8905C71.0911 18.7839 71.3351 18.7232 71.5839 18.712C71.8417 18.6963 72.0983 18.7569 72.3217 18.8864C72.5452 19.0159 72.7254 19.2085 72.8399 19.44L69.7999 20.704ZM66.1039 24H67.5999V14H66.1039V24ZM63.6559 18.16H63.5999C63.3764 17.9055 63.1006 17.7022 62.7913 17.5642C62.482 17.4261 62.1466 17.3564 61.8079 17.36C60.9336 17.4024 60.1092 17.7795 59.5055 18.4133C58.9017 19.047 58.565 19.8887 58.565 20.764C58.565 21.6393 58.9017 22.481 59.5055 23.1147C60.1092 23.7484 60.9336 24.1256 61.8079 24.168C62.1471 24.1748 62.4835 24.1066 62.7933 23.9683C63.1031 23.83 63.3785 23.625 63.5999 23.368H63.6559V23.856C63.6559 25.16 62.9599 25.856 61.8399 25.856C61.4657 25.8478 61.1025 25.7285 60.7962 25.5135C60.49 25.2984 60.2546 24.9971 60.1199 24.648L58.8239 25.184C59.0635 25.7858 59.4801 26.3007 60.0186 26.6607C60.5571 27.0206 61.1922 27.2087 61.8399 27.2C63.5919 27.2 65.0399 26.168 65.0399 23.656V17.6H63.6559V18.16ZM61.9359 22.864C61.4117 22.8313 60.9197 22.6001 60.5601 22.2173C60.2005 21.8346 60.0003 21.3292 60.0003 20.804C60.0003 20.2788 60.2005 19.7734 60.5601 19.3907C60.9197 19.0079 61.4117 18.7767 61.9359 18.744C62.1921 18.755 62.4434 18.8175 62.675 18.9277C62.9065 19.0379 63.1135 19.1935 63.2837 19.3853C63.4539 19.5771 63.5837 19.8012 63.6656 20.0443C63.7474 20.2873 63.7794 20.5443 63.7599 20.8C63.7817 21.0565 63.7513 21.3149 63.6704 21.5593C63.5896 21.8038 63.46 22.0293 63.2895 22.2222C63.119 22.4152 62.9111 22.5715 62.6784 22.6818C62.4458 22.7921 62.1932 22.8541 61.9359 22.864ZM81.4479 14H77.8639V24H79.3599V20.208H81.4479C81.8742 20.2386 82.3023 20.1811 82.7055 20.039C83.1086 19.8969 83.4782 19.6732 83.7911 19.382C84.104 19.0908 84.3535 18.7382 84.5242 18.3463C84.6948 17.9543 84.7829 17.5314 84.7829 17.104C84.7829 16.6765 84.6948 16.2536 84.5242 15.8617C84.3535 15.4698 84.104 15.1172 83.7911 14.826C83.4782 14.5348 83.1086 14.3111 82.7055 14.169C82.3023 14.0269 81.8742 13.9694 81.4479 14ZM81.4479 18.8H79.3599V15.392H81.4799C81.7047 15.392 81.9273 15.4363 82.135 15.5223C82.3428 15.6083 82.5315 15.7344 82.6904 15.8934C82.8494 16.0524 82.9755 16.2411 83.0616 16.4488C83.1476 16.6565 83.1919 16.8792 83.1919 17.104C83.1919 17.3288 83.1476 17.5514 83.0616 17.7591C82.9755 17.9669 82.8494 18.1556 82.6904 18.3146C82.5315 18.4735 82.3428 18.5996 82.135 18.6857C81.9273 18.7717 81.7047 18.816 81.4799 18.816L81.4479 18.8ZM90.6799 17.368C90.1351 17.3344 89.5924 17.4612 89.1189 17.7328C88.6454 18.0044 88.262 18.4088 88.0159 18.896L89.3359 19.448C89.4693 19.2075 89.6694 19.0108 89.9122 18.8816C90.1549 18.7524 90.4299 18.6963 90.7039 18.72C90.8938 18.6978 91.0862 18.7137 91.2699 18.7666C91.4536 18.8196 91.625 18.9087 91.7739 19.0286C91.9228 19.1484 92.0464 19.2968 92.1374 19.465C92.2284 19.6331 92.285 19.8177 92.3039 20.008V20.104C91.8228 19.8511 91.2874 19.7193 90.7439 19.72C89.3199 19.72 87.8639 20.52 87.8639 21.976C87.878 22.2855 87.9541 22.5889 88.0878 22.8684C88.2214 23.1479 88.4099 23.3977 88.642 23.6029C88.8741 23.8081 89.145 23.9646 89.4388 24.063C89.7325 24.1615 90.043 24.1999 90.3519 24.176C90.7273 24.1968 91.1015 24.1173 91.436 23.9458C91.7706 23.7743 92.0536 23.5169 92.2559 23.2H92.3039V24H93.7439V20.152C93.7439 18.4 92.4159 17.384 90.7119 17.384L90.6799 17.368ZM90.4959 22.848C90.0079 22.848 89.3279 22.6 89.3279 22C89.3279 21.2 90.1759 20.928 90.9279 20.928C91.4031 20.9163 91.8728 21.0323 92.2879 21.264C92.2377 21.6984 92.0317 22.1 91.708 22.3942C91.3844 22.6884 90.9651 22.8553 90.5279 22.864L90.4959 22.848ZM98.9919 17.6L97.2799 21.936H97.2319L95.4559 17.6H93.8559L96.5199 23.664L94.9999 27.032H96.5599L100.656 17.6H98.9919ZM85.5519 24H87.0399V14H85.5519V24Z" fill="white"/>
<path d="M8.3521 6.03232C8.08847 6.34402 7.95396 6.74469 7.9761 7.15232V24.8483C7.94888 25.2566 8.08401 25.6591 8.3521 25.9683L8.4081 26.0323L18.3201 16.1203V15.8803L8.4081 5.97632L8.3521 6.03232Z" fill="url(#paint0_linear_8612_34362)"/>
<path d="M21.6001 19.4242L18.3201 16.1202V15.8802L21.6001 12.5762L21.6721 12.6242L25.6001 14.8482C26.7201 15.4802 26.7201 16.5202 25.6001 17.1602L21.6881 19.3842L21.6001 19.4242Z" fill="url(#paint1_linear_8612_34362)"/>
<path d="M21.6963 19.376L18.3203 16L8.35229 25.968C8.57835 26.1692 8.86771 26.285 9.17018 26.2952C9.47265 26.3054 9.76916 26.2095 10.0083 26.024L21.6963 19.376Z" fill="url(#paint2_linear_8612_34362)"/>
<path d="M21.6963 12.6244L10.0083 5.98441C9.77071 5.79635 9.47443 5.69806 9.17155 5.70684C8.86867 5.71562 8.57858 5.8309 8.35229 6.03242L18.3203 16.0004L21.6963 12.6244Z" fill="url(#paint3_linear_8612_34362)"/>
<path opacity="0.2" d="M21.6003 19.304L10.0083 25.904C9.77785 26.0779 9.497 26.172 9.20829 26.172C8.91958 26.172 8.63874 26.0779 8.40829 25.904L8.35229 25.96L8.40829 26.024C8.63874 26.1979 8.91958 26.292 9.20829 26.292C9.497 26.292 9.77785 26.1979 10.0083 26.024L21.6963 19.376L21.6003 19.304Z" fill="black"/>
<path opacity="0.12" d="M8.35195 25.8563C8.09499 25.539 7.96906 25.1354 7.99995 24.7283V24.8483C7.97273 25.2566 8.10787 25.6591 8.37595 25.9683L8.43195 25.9123L8.35195 25.8563Z" fill="black"/>
<path opacity="0.12" d="M25.6003 17.04L21.6003 19.304L21.6723 19.376L25.6003 17.152C25.8322 17.054 26.0333 16.8952 26.1826 16.6925C26.3318 16.4897 26.4236 16.2505 26.4483 16C26.3983 16.2277 26.2955 16.4404 26.1482 16.621C26.0009 16.8017 25.8133 16.9452 25.6003 17.04Z" fill="black"/>
<path opacity="0.25" d="M10.0078 6.09593L25.5998 14.9599C25.8128 15.0548 26.0004 15.1983 26.1477 15.3789C26.295 15.5596 26.3978 15.7723 26.4478 15.9999C26.4231 15.7494 26.3313 15.5102 26.1821 15.3075C26.0328 15.1047 25.8317 14.946 25.5998 14.8479L10.0078 5.98393C8.89583 5.34393 7.97583 5.87193 7.97583 7.15193V7.27193C7.99983 5.99193 8.89583 5.46393 10.0078 6.09593Z" fill="white"/>
<path d="M33.6882 11.4159H33.1042V9.81585H33.6002C33.8234 9.57358 33.9912 9.28569 34.0921 8.97211C34.1929 8.65854 34.2244 8.32679 34.1842 7.99985V5.59985H37.3842V9.80785H37.9202V11.4079H37.3282V10.3999H33.6882V11.4159ZM34.8002 7.99985C34.8359 8.64248 34.677 9.28094 34.3442 9.83185H36.7442V6.19185H34.8002V7.99985Z" fill="white" stroke="white" stroke-width="0.1892" stroke-miterlimit="10"/>
<path d="M42.7278 9.77611C42.4975 10.0071 42.2238 10.1904 41.9224 10.3154C41.6211 10.4405 41.2981 10.5049 40.9718 10.5049C40.6456 10.5049 40.3226 10.4405 40.0212 10.3154C39.7199 10.1904 39.4462 10.0071 39.2158 9.77611C38.7582 9.29812 38.5027 8.66189 38.5027 8.00011C38.5027 7.33834 38.7582 6.70211 39.2158 6.22412C39.4462 5.99311 39.7199 5.80984 40.0212 5.68478C40.3226 5.55973 40.6456 5.49536 40.9718 5.49536C41.2981 5.49536 41.6211 5.55973 41.9224 5.68478C42.2238 5.80984 42.4975 5.99311 42.7278 6.22412C42.9589 6.45771 43.141 6.73518 43.2633 7.04018C43.3856 7.34518 43.4456 7.67156 43.4398 8.00011C43.4493 8.32915 43.391 8.65661 43.2685 8.96214C43.146 9.26767 42.962 9.54473 42.7278 9.77611ZM39.6638 9.37611C39.8324 9.55119 40.0351 9.6898 40.2594 9.78337C40.4837 9.87695 40.7248 9.92349 40.9678 9.92011C41.2111 9.92493 41.4526 9.87906 41.6771 9.7854C41.9016 9.69174 42.1042 9.55235 42.2718 9.37611C42.617 9.00102 42.8086 8.50988 42.8086 8.00011C42.8086 7.49035 42.617 6.99921 42.2718 6.62411C42.1042 6.44788 41.9016 6.30849 41.6771 6.21483C41.4526 6.12117 41.2111 6.07529 40.9678 6.08011C40.7248 6.07674 40.4837 6.12328 40.2594 6.21686C40.0351 6.31043 39.8324 6.44904 39.6638 6.62411C39.3237 7.00172 39.1355 7.49191 39.1355 8.00011C39.1355 8.50831 39.3237 8.99851 39.6638 9.37611Z" fill="white" stroke="white" stroke-width="0.1892" stroke-miterlimit="10"/>
<path d="M46.5441 10.5044C46.2204 10.5094 45.899 10.449 45.5993 10.3266C45.2996 10.2042 45.0277 10.0225 44.8001 9.79235C44.3385 9.30995 44.0808 8.66803 44.0808 8.00035C44.0808 7.33268 44.3385 6.69075 44.8001 6.20835C45.0314 5.97422 45.3085 5.7902 45.614 5.66771C45.9196 5.54522 46.247 5.48689 46.5761 5.49635C46.911 5.48688 47.2436 5.55402 47.5486 5.69267C47.8537 5.83131 48.123 6.03779 48.3361 6.29635L47.9121 6.71235C47.7549 6.51028 47.5515 6.34888 47.3191 6.24169C47.0866 6.13451 46.8318 6.08466 46.5761 6.09635C46.3298 6.09007 46.0849 6.1344 45.8565 6.2266C45.628 6.31879 45.421 6.4569 45.2481 6.63235C44.9035 7.01092 44.7125 7.50443 44.7125 8.01635C44.7125 8.52827 44.9035 9.02178 45.2481 9.40035C45.421 9.57581 45.628 9.71391 45.8565 9.80611C46.0849 9.8983 46.3298 9.94263 46.5761 9.93635C46.851 9.92854 47.1208 9.86077 47.3668 9.73779C47.6127 9.61481 47.8289 9.43958 48.0001 9.22435L48.4321 9.64835C48.2129 9.91098 47.9401 10.1237 47.6321 10.2724C47.2917 10.4313 46.9196 10.5107 46.5441 10.5044Z" fill="white" stroke="white" stroke-width="0.1892" stroke-miterlimit="10"/>
<path d="M50.9439 10.3999H50.3279V6.19185H48.9839V5.59985H52.2799V6.19185H50.9439V10.3999Z" fill="white" stroke="white" stroke-width="0.1892" stroke-miterlimit="10"/>
<path d="M56.5199 5.59985L54.7039 9.64785C54.6599 9.81015 54.5811 9.96094 54.473 10.0898C54.3648 10.2186 54.23 10.3223 54.0778 10.3939C53.9256 10.4654 53.7597 10.503 53.5915 10.504C53.4234 10.5051 53.257 10.4695 53.1039 10.3999L53.2639 9.83185C53.3618 9.88686 53.4717 9.91707 53.5839 9.91985C53.7023 9.92579 53.8196 9.89506 53.9199 9.83185C54.0171 9.75099 54.0915 9.64622 54.1359 9.52785L54.3119 9.14385L52.7119 5.59985H53.4399L54.6239 8.35185L55.7919 5.59985H56.5199Z" fill="white" stroke="white" stroke-width="0.1892" stroke-miterlimit="10"/>
<path d="M57.2158 10.3999V5.59985H60.6878V10.3999H60.0718V6.19185H57.8318V10.3999H57.2158Z" fill="white" stroke="white" stroke-width="0.1892" stroke-miterlimit="10"/>
<path d="M61.7839 10.3999V5.59985H62.3999V7.65585H64.7999V5.59985H65.4239V10.3999H64.7999V8.23185H62.3999V10.3999H61.7839Z" fill="white" stroke="white" stroke-width="0.1892" stroke-miterlimit="10"/>
<path d="M70.448 9.77611C70.2169 10.0074 69.9426 10.1908 69.6406 10.316C69.3386 10.4411 69.0149 10.5056 68.688 10.5056C68.3611 10.5056 68.0374 10.4411 67.7354 10.316C67.4334 10.1908 67.1591 10.0074 66.928 9.77611C66.4703 9.29812 66.2148 8.66189 66.2148 8.00011C66.2148 7.33834 66.4703 6.70211 66.928 6.22412C67.1584 5.99311 67.4321 5.80984 67.7334 5.68478C68.0347 5.55973 68.3578 5.49536 68.684 5.49536C69.0102 5.49536 69.3333 5.55973 69.6346 5.68478C69.9359 5.80984 70.2096 5.99311 70.44 6.22412C70.894 6.70397 71.1471 7.3395 71.1471 8.00011C71.1471 8.66073 70.894 9.29626 70.44 9.77611H70.448ZM67.384 9.37611C67.5517 9.55235 67.7542 9.69174 67.9787 9.7854C68.2032 9.87906 68.4448 9.92493 68.688 9.92011C68.931 9.92349 69.1721 9.87695 69.3964 9.78337C69.6207 9.6898 69.8234 9.55119 69.992 9.37611C70.3321 8.99851 70.5203 8.50831 70.5203 8.00011C70.5203 7.49191 70.3321 7.00172 69.992 6.62411C69.8234 6.44904 69.6207 6.31043 69.3964 6.21686C69.1721 6.12328 68.931 6.07674 68.688 6.08011C68.4448 6.07529 68.2032 6.12117 67.9787 6.21483C67.7542 6.30849 67.5517 6.44788 67.384 6.62411C67.0388 6.99921 66.8472 7.49035 66.8472 8.00011C66.8472 8.50988 67.0388 9.00102 67.384 9.37611Z" fill="white" stroke="white" stroke-width="0.1892" stroke-miterlimit="10"/>
<path d="M73.6721 10.3997V5.59968H75.4081C75.768 5.59607 76.1162 5.72736 76.3841 5.96768C76.5178 6.08369 76.6244 6.22766 76.6962 6.38941C76.7681 6.55115 76.8036 6.72672 76.8001 6.90368C76.8021 7.11918 76.7409 7.33054 76.6241 7.51168C76.506 7.68345 76.3427 7.81914 76.1521 7.90368C76.3831 7.98266 76.586 8.12722 76.7361 8.31968C76.8832 8.51574 76.9619 8.75461 76.9601 8.99968C76.9642 9.18411 76.9276 9.36717 76.853 9.53585C76.7783 9.70454 76.6674 9.8547 76.5281 9.97568C76.2505 10.2341 75.8833 10.3746 75.5041 10.3677L73.6721 10.3997ZM74.2881 7.65568H75.4081C75.5129 7.66174 75.6177 7.64402 75.7147 7.60385C75.8117 7.56367 75.8983 7.50208 75.9681 7.42368C76.1038 7.29075 76.1814 7.1096 76.1841 6.91968C76.1917 6.72918 76.1258 6.54304 76.0001 6.39968C75.9329 6.32508 75.8499 6.2663 75.7572 6.22756C75.6646 6.18883 75.5645 6.17111 75.4641 6.17568H74.3121L74.2881 7.65568ZM74.2881 9.80768H75.5361C75.6445 9.81132 75.7523 9.79097 75.8519 9.7481C75.9514 9.70523 76.0403 9.64089 76.1121 9.55968C76.2503 9.41214 76.3274 9.21779 76.3281 9.01568C76.3233 8.81526 76.2433 8.62397 76.1041 8.47968C76.027 8.39871 75.9338 8.3348 75.8304 8.29208C75.7271 8.24936 75.6159 8.22879 75.5041 8.23168H74.2881V9.80768Z" fill="white" stroke="white" stroke-width="0.1892" stroke-miterlimit="10"/>
</g>
<defs>
<linearGradient id="paint0_linear_8612_34362" x1="17.4401" y1="6.96832" x2="4.0161" y2="20.3923" gradientUnits="userSpaceOnUse">
<stop stop-color="#00A0FF"/>
<stop offset="0.01" stop-color="#00A1FF"/>
<stop offset="0.26" stop-color="#00BEFF"/>
<stop offset="0.51" stop-color="#00D2FF"/>
<stop offset="0.76" stop-color="#00DFFF"/>
<stop offset="1" stop-color="#00E3FF"/>
</linearGradient>
<linearGradient id="paint1_linear_8612_34362" x1="27.0641" y1="16.0002" x2="7.71207" y2="16.0002" gradientUnits="userSpaceOnUse">
<stop stop-color="#FFE000"/>
<stop offset="0.41" stop-color="#FFBD00"/>
<stop offset="0.78" stop-color="#FFA500"/>
<stop offset="1" stop-color="#FF9C00"/>
</linearGradient>
<linearGradient id="paint2_linear_8612_34362" x1="19.8643" y1="17.84" x2="1.65629" y2="36.04" gradientUnits="userSpaceOnUse">
<stop stop-color="#FF3A44"/>
<stop offset="1" stop-color="#C31162"/>
</linearGradient>
<linearGradient id="paint3_linear_8612_34362" x1="5.8403" y1="0.144416" x2="13.9683" y2="8.27241" gradientUnits="userSpaceOnUse">
<stop stop-color="#32A071"/>
<stop offset="0.07" stop-color="#2DA771"/>
<stop offset="0.48" stop-color="#15CF74"/>
<stop offset="0.8" stop-color="#06E775"/>
<stop offset="1" stop-color="#00F076"/>
</linearGradient>
<clipPath id="clip0_8612_34362">
<rect width="108" height="32" fill="white"/>
</clipPath>
</defs>
</svg>
